<svg xmlns="http://www.w3.org/2000/svg" viewBox="0 0 368.568 107.139">
  <path fill="#56289b" d="M17.873-.226 0 18.408l.028 65.49 148.448-.434 18.898-25.498 200.306-1.662-.421-55.981z" paint-order="fill markers stroke"/>
  <path fill="#fff" d="m163.262 76.87 11.605-15.325h18.979l-12.26 16.19h-18.282v-.093m33.663-.772 11.605-15.325h18.979l-12.26 16.19h-18.282v-.093m33.586-.772L242.2 61.545h18.979l-12.26 16.19h-18.282v-.093m33.679-.772 11.605-15.325h18.978l-12.26 16.19h-18.282v-.093m34.431-.772 11.605-15.325h18.978l-12.26 16.19h-18.282v-.093m33.457-.678 11.605-15.325h18.978l-12.26 16.19h-18.282v-.093" paint-order="fill markers stroke"/>
  <g fill="#fff" stroke-width="0" paint-order="stroke fill markers">
    <path d="M83.926 53.017a11.924 11.924 0 0 0-12.21 11.63 11.924 11.924 0 0 0 4.746 9.812c-5.992 1.398-12.088 8.76-13.246 15.627-.713 4.23 3.727 6.091 3.957 6.185l.04-.099-.018.107c-.338 1.84 1.735 5.548 4.52 7.3 2.655 1.669 14.404 6.286 22.85 1.336 8.445-4.95 4.861-7.468 6.3-7.541 4.826-.245 5.964-5.29 2.206-12.914-2.993-6.072-8.579-8.857-12.375-9.914a11.924 11.924 0 0 0 4.86-9.32 11.924 11.924 0 0 0-11.63-12.21z"/>
    <path d="M57.083 54.794a8.041 8.041 0 0 0-5.033 14.461c-4.041.942-8.152 5.907-8.933 10.538-.48 2.853 1.054 4.105 2.668 4.171l.028-.066-.013.072c-.228 1.24 1.17 3.741 3.048 4.922 1.79 1.126 9.714 4.24 15.41.902 5.695-3.339 3.279-5.037 4.249-5.086 3.254-.165 4.021-3.567 1.487-8.709-2.018-4.095-5.785-5.973-8.345-6.686a8.041 8.041 0 0 0-4.566-14.519zm53.739 0a8.041 8.041 0 0 0-8.234 7.844 8.041 8.041 0 0 0 3.2 6.617c-4.04.942-8.151 5.907-8.932 10.538-.48 2.853 2.513 4.108 2.668 4.171l.028-.066-.013.072c-.228 1.24 1.17 3.741 3.048 4.922 1.79 1.126 9.714 4.24 15.41.902 5.695-3.339 3.279-5.037 4.249-5.086 3.254-.165 4.022-3.567 1.488-8.709-2.019-4.095-5.786-5.973-8.346-6.686a8.041 8.041 0 0 0 3.278-6.284 8.041 8.041 0 0 0-7.844-8.235z"/>
  </g>
  <path fill="#fff" d="M20.397 67.758h.038l-2.765 15.75q-.472 2.691-3.855 4.183-3.128 1.382-7.747 1.382h-16.295q-.8 0-1.273-.582-.473-.546-.328-1.382.146-.8.8-1.382.691-.546 1.492-.546h12.73q1.746 0 3.128-.946 1.382-.945 1.6-2.255l.219-1.31H-3.135q-4.328 0-6.91-1.236-2.801-1.273-2.801-3.637 0-.328.038-.691l1.2-6.766q.364-2.073 2.073-3.528 1.746-1.491 3.82-1.491 1.854 0 3.018 1.2 1.2 1.164 1.2 2.946 0 .437-.072.873l-1.091 6.111q-.4 2.291 3.746 2.291h5.82q.8 0 1.455-.545.69-.582.836-1.382l1.128-6.475q.363-2.073 2.073-3.528 1.746-1.491 3.819-1.491 1.928 0 3.092 1.31 1.2 1.272 1.09 3.127zm34.008 9.057q.8 0 1.273.582.473.546.328 1.382-.146.8-.837 1.382-.655.546-1.455.546H35.492q-4.329 0-6.948-1.2-2.8-1.31-2.8-3.637 0-.328.072-.692l1.055-5.892q.473-2.655 3.82-4.183 3.164-1.382 7.783-1.382h10.694q4.292 0 6.91 1.237 2.801 1.273 2.801 3.637 0 .327-.073.691-.472 2.655-3.855 4.147-3.128 1.382-7.747 1.382H36.219q.727 2 3.492 2zM41.348 67.65q-1.746 0-3.129.946-1.382.91-1.6 2.255l-.038.073h9.966q1.964 0 2.255-1.637.291-1.637-1.673-1.637zm43.902 2.582q9.784 0 9.784 4.328 0 .327-.038.691-.473 2.655-3.856 4.11-3.055 1.31-7.747 1.31h-19.35q-.837 0-1.31-.582-.473-.582-.327-1.382.145-.8.8-1.383.691-.582 1.491-.582h17.35q.873 0 1.71-.436.873-.436.982-1.055.182-1.091-2.255-1.091h-8.62q-9.821 0-9.821-4.328 0-.328.072-.691.473-2.656 3.82-4.11 3.091-1.31 7.747-1.31h19.386q.8 0 1.274.582.472.582.327 1.382-.146.8-.837 1.382-.654.582-1.455.582H77.064q-.873 0-1.746.437-.873.436-.946 1.055-.218 1.09 2.22 1.09zm40.445 6.547q.8 0 1.273.582.473.545.328 1.346-.146.836-.837 1.418-.654.546-1.455.546h-9.784q-4.292 0-6.91-1.2-2.801-1.31-2.801-3.638 0-.364.072-.727l1.382-7.857h-2.873q-.8 0-1.273-.582-.473-.582-.327-1.382.145-.8.8-1.346.69-.582 1.491-.582h2.983q.69-1.746 2.255-2.837 1.564-1.127 3.346-1.127t2.946 1.127q1.2 1.091 1.273 2.837h10.476q.8 0 1.273.582.473.546.327 1.346-.11.8-.8 1.382-.655.582-1.491.582h-10.367l-1.127 6.329q-.038.218-.038.437 0 1.163 1.018 1.964 1.055.8 2.62.8zm34.373.036q.8 0 1.273.582.473.546.327 1.382-.145.8-.837 1.382-.654.546-1.454.546h-18.223q-4.329 0-6.947-1.2-2.801-1.31-2.801-3.637 0-.328.073-.692l1.055-5.892q.472-2.655 3.819-4.183 3.164-1.382 7.783-1.382h10.694q4.292 0 6.91 1.237 2.802 1.273 2.802 3.637 0 .327-.073.691-.473 2.655-3.856 4.147-3.128 1.382-7.747 1.382H141.88q.728 2 3.492 2zM147.01 67.65q-1.746 0-3.128.946-1.382.91-1.6 2.255l-.039.073h9.967q1.964 0 2.255-1.637.29-1.637-1.673-1.637zm46.957-3.929q.8 0 1.273.582.473.582.327 1.382-.145.8-.836 1.382-.655.582-1.455.582h-7.82q-1.71 0-3.128.946-1.382.91-1.6 2.255l-.91 5.201q-.364 2.074-2.11 3.565-1.71 1.455-3.782 1.455-1.855 0-3.056-1.164-1.164-1.2-1.164-2.983 0-.436.073-.873l1.2-6.765q.473-2.655 3.856-4.183 3.128-1.382 7.747-1.382zm39.21-.436q1.673 0 2.764 1.09 1.091 1.056 1.091 2.692 0 .4-.073.8l-1.345 7.639q-.473 2.691-3.856 4.183-3.128 1.382-7.747 1.382h-1.019q-3.455 0-5.892-.837-2.728.837-6.183.837h-1.019q-4.292 0-6.91-1.2-2.801-1.31-2.801-3.638 0-.363.038-.727l1.345-7.638q.364-1.892 1.928-3.238 1.6-1.345 3.492-1.345 1.673 0 2.764 1.09 1.091 1.056 1.091 2.692 0 .4-.072.8l-1.237 6.948q-.11.8.327 1.382.473.545 1.31.545.8 0 1.455-.545.69-.582.836-1.382l1.2-6.947q.292-1.674 1.565-2.91 1.273-1.273 2.91-1.6.29-.037.945-.073 1.637 0 2.728 1.054 1.128 1.055 1.128 2.728 0 .4-.073.8l-1.237 6.948q-.109.8.328 1.382.472.545 1.309.545.8 0 1.455-.545.691-.582.836-1.382l1.2-6.947q.364-1.892 1.929-3.238 1.6-1.345 3.491-1.345zm37.791 13.53q.8 0 1.273.582.473.546.327 1.382-.145.8-.836 1.382-.655.546-1.455.546h-18.223q-4.328 0-6.947-1.2-2.8-1.31-2.8-3.637 0-.328.072-.692l1.055-5.892q.473-2.655 3.819-4.183 3.164-1.382 7.784-1.382h10.693q4.292 0 6.911 1.237 2.8 1.273 2.8 3.637 0 .327-.072.691-.473 2.655-3.855 4.147-3.128 1.382-7.748 1.382h-10.984q.727 2 3.491 2zM257.91 67.65q-1.746 0-3.128.946-1.382.91-1.6 2.255l-.038.073h9.966q1.964 0 2.255-1.637.291-1.637-1.673-1.637zm45.247-3.929q4.292 0 6.911 1.237 2.8 1.273 2.8 3.637 0 .327-.072.691l-1.018 5.82q-.473 2.655-3.856 4.146-3.128 1.419-7.747 1.419h-17.168q-4.183 0-3.746-2.292l2.437-13.93q.363-2.074 2.073-3.529 1.746-1.49 3.819-1.49 1.891 0 3.055 1.236 1.2 1.236 1.128 3.055zm-1.273 10.73.8-4.51q.4-2.292-3.782-2.292h-5.783q-.8 0-1.492.582-.654.546-.8 1.346l-.946 5.238q-.109.8.328 1.382.473.545 1.31.545h5.782q4.147 0 4.583-2.291z" font-family="GauFontPopMagic" font-size="96" style="line-height:1.25;-inkscape-font-specification:&quot;GauFontPopMagic, Normal&quot;;white-space:pre" transform="translate(33.616 -49.766)"/>
  <path d="M117.256 38.53c1.491-1.207 21.822.741 28.661 3.498.747 2.171-1.35 13.154-2.436 14.812-1.642.662-18.819.933-21.172-.112-1.084-1.636-6.665-16.483-5.053-18.198z" paint-order="fill markers stroke"/>
  <path d="M131.972 56.12c-.929 2.762-3.105 7.214-2.786 8.288 1.008-.067 7.574-5.464 11.36-8.195l-5.13-.458z" paint-order="fill markers stroke"/>
  <g fill="#fff" stroke-width="1.44096e+30" paint-order="markers fill stroke" transform="translate(-138.739 119.016) scale(.02422)">
    <circle cx="10943.315" cy="-2963.464" r="53.612" opacity=".88"/>
    <circle cx="11183.097" cy="-2963.558" r="53.612" opacity=".88"/>
    <circle cx="11429.884" cy="-2960.121" r="53.612" opacity=".88"/>
  </g>
  <path d="M40.624 52.48c-1.491-1.207-21.822.74-28.661 3.498-.747 2.17 1.35 13.153 2.436 14.812 1.642.662 18.819.932 21.172-.113 1.084-1.635 6.665-16.482 5.053-18.198z" paint-order="fill markers stroke"/>
  <path d="M25.908 70.069c.929 2.763 3.105 7.215 2.786 8.288-1.008-.066-7.573-5.463-11.36-8.195l5.13-.457z" paint-order="fill markers stroke"/>
  <g fill="#fff" stroke-width="1.44096e+30" paint-order="markers fill stroke" transform="matrix(-.02422 0 0 .02422 296.619 132.965)">
    <circle cx="10943.315" cy="-2963.464" r="53.612" opacity=".88"/>
    <circle cx="11183.097" cy="-2963.558" r="53.612" opacity=".88"/>
    <circle cx="11429.884" cy="-2960.121" r="53.612" opacity=".88"/>
  </g>
</svg>
