<?xml version="1.0" standalone="no"?>
<!DOCTYPE svg PUBLIC "-//W3C//DTD SVG 20010904//EN"
 "http://www.w3.org/TR/2001/REC-SVG-20010904/DTD/svg10.dtd">
<svg version="1.0" xmlns="http://www.w3.org/2000/svg"
 width="77.000000pt" height="1420.000000pt" viewBox="0 0 77.000000 1420.000000"
 preserveAspectRatio="xMidYMid meet">

<g transform="translate(0.000000,1420.000000) scale(0.100000,-0.100000)"
fill="#000000" stroke="none">
<path d="M362 13837 l-362 -362 0 -210 0 -210 385 385 385 385 0 187 0 188
-23 0 c-16 0 -122 -100 -385 -363z"/>
<path d="M383 13308 l-383 -383 0 -210 0 -210 385 385 385 385 -2 208 -3 207
-382 -382z"/>
<path d="M383 12758 l-383 -383 0 -210 0 -210 385 385 385 385 -2 208 -3 207
-382 -382z"/>
<path d="M383 12218 l-383 -383 0 -210 0 -210 385 385 385 385 -2 208 -3 207
-382 -382z"/>
<path d="M383 11668 l-383 -383 0 -210 0 -210 385 385 385 385 -2 208 -3 207
-382 -382z"/>
<path d="M383 11118 l-383 -383 0 -210 0 -210 385 385 385 385 -2 208 -3 207
-382 -382z"/>
<path d="M383 10578 l-383 -383 0 -1130 0 -1130 385 385 385 385 -2 1128 -3
1127 -382 -382z"/>
<path d="M613 8468 l-153 -153 0 -450 0 -450 155 155 155 155 -2 448 -3 447
-152 -152z"/>
<path d="M147 7982 l-147 -147 0 -85 0 -85 155 155 155 155 0 77 c0 43 -3 78
-8 78 -4 0 -74 -66 -155 -148z"/>
<path d="M153 7768 l-153 -153 0 -85 0 -85 155 156 156 155 -3 82 -3 82 -152
-152z"/>
<path d="M153 7548 l-153 -153 0 -85 0 -85 155 156 156 155 -3 82 -3 82 -152
-152z"/>
<path d="M613 7518 l-153 -153 0 -78 c0 -42 3 -77 8 -77 4 0 74 67 155 148
l148 148 -3 82 -3 82 -152 -152z"/>
<path d="M153 7328 l-153 -153 0 -85 0 -85 155 156 156 155 -3 82 -3 82 -152
-152z"/>
<path d="M613 7298 l-153 -153 0 -78 c0 -42 3 -77 8 -77 4 0 74 67 155 148
l148 148 -3 82 -3 82 -152 -152z"/>
<path d="M147 7112 l-147 -147 0 -85 0 -85 155 155 155 155 0 77 c0 43 -3 78
-8 78 -4 0 -74 -66 -155 -148z"/>
<path d="M613 7078 l-153 -153 0 -78 c0 -42 3 -77 8 -77 4 0 74 67 155 148
l148 148 -3 82 -3 82 -152 -152z"/>
<path d="M153 6898 l-153 -153 0 -85 0 -85 155 156 156 155 -3 82 -3 82 -152
-152z"/>
<path d="M613 6868 l-153 -153 0 -85 0 -85 155 156 156 155 -3 82 -3 82 -152
-152z"/>
<path d="M153 6678 l-153 -153 0 -450 0 -450 155 155 155 155 -2 448 -3 447
-152 -152z"/>
<path d="M613 6648 l-153 -153 0 -78 c0 -42 3 -77 8 -77 4 0 74 67 155 148
l148 148 -3 82 -3 82 -152 -152z"/>
<path d="M613 6428 l-153 -153 0 -78 c0 -42 3 -77 8 -77 4 0 74 67 155 148
l148 148 -3 82 -3 82 -152 -152z"/>
<path d="M383 5928 l-383 -383 0 -1130 0 -1130 385 385 385 385 -2 1128 -3
1127 -382 -382z"/>
<path d="M383 3548 l-383 -383 0 -210 0 -210 385 385 385 385 -2 208 -3 207
-382 -382z"/>
<path d="M383 2998 l-383 -383 0 -210 0 -210 385 385 385 385 -2 208 -3 207
-382 -382z"/>
<path d="M383 2448 l-383 -383 0 -210 0 -210 385 385 385 385 -2 208 -3 207
-382 -382z"/>
<path d="M383 1908 l-383 -383 0 -210 0 -210 385 385 385 385 -2 208 -3 207
-382 -382z"/>
<path d="M383 1358 l-383 -383 0 -210 0 -210 385 385 385 385 -2 208 -3 207
-382 -382z"/>
<path d="M383 808 l-383 -383 0 -210 0 -210 385 385 385 385 -2 208 -3 207
-382 -382z"/>
</g>
</svg>
